<svg width="1479" height="516" viewBox="0 0 1479 516" fill="none" xmlns="http://www.w3.org/2000/svg">
<circle cx="167" cy="332" r="143" fill="url(#paint0_linear_261_149)"/>
<path d="M251 229V125C251 79.1604 213.84 42 168 42H151C105.16 42 68 79.1604 68 125V227" stroke="url(#paint1_linear_261_149)" stroke-width="35" stroke-linecap="round"/>
<circle cx="143" cy="354" r="143" fill="#EEEEEE"/>
<circle cx="136.5" cy="354.5" r="110" fill="#33CB9A" stroke="#121317" stroke-width="3"/>
<path d="M269 354.5C269 281.322 209.678 222 136.5 222" stroke="url(#paint2_linear_261_149)" stroke-width="10.9504" stroke-linecap="round"/>
<path d="M135.5 293L141.995 313.25H129.005L135.5 293Z" fill="white"/>
<circle cx="136" cy="367" r="56" fill="#C0C1C3"/>
<circle cx="119.5" cy="374.5" r="51.5" fill="#EEEEEE"/>
<circle cx="119" cy="375" r="42" fill="#BFC1C3"/>
<circle cx="116" cy="378" r="39" fill="white"/>
<line x1="255.5" y1="137.5" x2="255.5" y2="221.5" stroke="white" stroke-opacity="0.5" stroke-width="15" stroke-linecap="round"/>
<line x1="255.5" y1="113.5" x2="255.5" y2="111.5" stroke="white" stroke-opacity="0.5" stroke-width="15" stroke-linecap="round"/>
<line x1="246" y1="356" x2="223" y2="356" stroke="#121317" stroke-width="3" stroke-linecap="round"/>
<line x1="49" y1="356" x2="26" y2="356" stroke="#121317" stroke-width="3" stroke-linecap="round"/>
<line x1="137.5" y1="244.5" x2="137.5" y2="267.5" stroke="#121317" stroke-width="3" stroke-linecap="round"/>
<line x1="137.5" y1="441.5" x2="137.5" y2="464.5" stroke="#121317" stroke-width="3" stroke-linecap="round"/>
<line x1="216.516" y1="279.537" x2="199.898" y2="295.438" stroke="#121317" stroke-width="3" stroke-linecap="round"/>
<line x1="74.1761" y1="415.73" x2="57.5577" y2="431.63" stroke="#121317" stroke-width="3" stroke-linecap="round"/>
<line x1="210.963" y1="435.016" x2="195.062" y2="418.398" stroke="#121317" stroke-width="3" stroke-linecap="round"/>
<line x1="74.7703" y1="292.676" x2="58.8697" y2="276.058" stroke="#121317" stroke-width="3" stroke-linecap="round"/>
<path d="M341.891 298.812C341.891 290.469 343.484 282.641 346.672 275.328C349.859 268.016 354.172 261.641 359.609 256.203C365.141 250.672 371.562 246.312 378.875 243.125C386.188 239.938 394.016 238.344 402.359 238.344H494.891V278.703H402.359C399.547 278.703 396.922 279.219 394.484 280.25C392.047 281.281 389.891 282.734 388.016 284.609C386.234 286.391 384.828 288.5 383.797 290.938C382.766 293.375 382.25 296 382.25 298.812C382.25 301.625 382.766 304.297 383.797 306.828C384.828 309.266 386.234 311.422 388.016 313.297C389.891 315.078 392.047 316.484 394.484 317.516C396.922 318.547 399.547 319.062 402.359 319.062H442.719C451.062 319.062 458.891 320.656 466.203 323.844C473.609 326.938 480.031 331.25 485.469 336.781C491 342.219 495.312 348.641 498.406 356.047C501.594 363.359 503.188 371.188 503.188 379.531C503.188 387.875 501.594 395.703 498.406 403.016C495.312 410.328 491 416.75 485.469 422.281C480.031 427.719 473.609 432.031 466.203 435.219C458.891 438.406 451.062 440 442.719 440H353.141V399.641H442.719C445.531 399.641 448.156 399.125 450.594 398.094C453.031 397.062 455.141 395.656 456.922 393.875C458.797 392 460.25 389.844 461.281 387.406C462.312 384.969 462.828 382.344 462.828 379.531C462.828 376.719 462.312 374.094 461.281 371.656C460.25 369.219 458.797 367.109 456.922 365.328C455.141 363.453 453.031 362 450.594 360.969C448.156 359.938 445.531 359.422 442.719 359.422H402.359C394.016 359.422 386.188 357.828 378.875 354.641C371.562 351.453 365.141 347.141 359.609 341.703C354.172 336.172 349.859 329.75 346.672 322.438C343.484 315.031 341.891 307.156 341.891 298.812ZM570.125 440H529.766V238.344H570.125V319.062H650.703V238.344H691.062V440H650.703V359.422H570.125V440ZM768.969 440H728.609V238.344H768.969V440ZM846.875 440H806.516V238.344H947.703V278.703H846.875V319.062H907.344V359.422H846.875V440ZM1053.17 440H1012.95V278.703H952.344V238.344H1113.64V278.703H1053.17V440ZM1225.72 440H1185.5V376.859C1176.59 374.609 1168.39 371 1160.89 366.031C1153.48 361.062 1147.11 355.156 1141.77 348.312C1136.42 341.375 1132.25 333.734 1129.25 325.391C1126.34 316.953 1124.89 308.094 1124.89 298.812V238.344H1165.25V298.812C1165.25 304.344 1166.28 309.594 1168.34 314.562C1170.5 319.438 1173.41 323.703 1177.06 327.359C1180.72 331.016 1184.98 333.922 1189.86 336.078C1194.83 338.141 1200.08 339.172 1205.61 339.172C1211.14 339.172 1216.34 338.141 1221.22 336.078C1226.19 333.922 1230.5 331.016 1234.16 327.359C1237.81 323.703 1240.67 319.438 1242.73 314.562C1244.89 309.594 1245.97 304.344 1245.97 298.812V238.344H1286.19V298.812C1286.19 308.094 1284.69 316.953 1281.69 325.391C1278.78 333.734 1274.66 341.375 1269.31 348.312C1263.97 355.156 1257.59 361.062 1250.19 366.031C1242.78 371 1234.62 374.609 1225.72 376.859V440Z" fill="white"/>
<defs>
<linearGradient id="paint0_linear_261_149" x1="167" y1="189" x2="359" y2="609.5" gradientUnits="userSpaceOnUse">
<stop stop-color="#C0C1C3"/>
<stop offset="1" stop-color="#868687"/>
</linearGradient>
<linearGradient id="paint1_linear_261_149" x1="159.5" y1="42" x2="159.093" y2="627.09" gradientUnits="userSpaceOnUse">
<stop stop-color="#33CB9A"/>
<stop offset="1" stop-color="#29AD83"/>
</linearGradient>
<linearGradient id="paint2_linear_261_149" x1="136" y1="222" x2="253" y2="322" gradientUnits="userSpaceOnUse">
<stop stop-color="white" stop-opacity="0"/>
<stop offset="1" stop-color="white"/>
</linearGradient>
</defs>
</svg>
