<svg width="1479" height="516" viewBox="0 0 1479 516" fill="none" xmlns="http://www.w3.org/2000/svg">
<circle cx="167" cy="332" r="143" fill="url(#paint0_linear_261_109)"/>
<path d="M251 229V125C251 79.1604 213.84 42 168 42H151C105.16 42 68 79.1604 68 125V227" stroke="url(#paint1_linear_261_109)" stroke-width="35" stroke-linecap="round"/>
<circle cx="143" cy="354" r="143" fill="#2A2E37"/>
<circle cx="136.5" cy="354.5" r="110" fill="#33CB9A" stroke="black" stroke-width="3"/>
<path d="M269 354.5C269 281.322 209.678 222 136.5 222" stroke="url(#paint2_linear_261_109)" stroke-width="10.9504" stroke-linecap="round"/>
<path d="M135.5 293L141.995 313.25H129.005L135.5 293Z" fill="#303540"/>
<circle cx="136" cy="367" r="56" fill="black"/>
<circle cx="119.5" cy="374.5" r="51.5" fill="#23262E"/>
<circle cx="119" cy="375" r="42" fill="#16181D"/>
<circle cx="116" cy="378" r="39" fill="#303540"/>
<line x1="255.5" y1="137.5" x2="255.5" y2="221.5" stroke="white" stroke-opacity="0.5" stroke-width="15" stroke-linecap="round"/>
<line x1="255.5" y1="113.5" x2="255.5" y2="111.5" stroke="white" stroke-opacity="0.5" stroke-width="15" stroke-linecap="round"/>
<line x1="246" y1="356" x2="223" y2="356" stroke="#121317" stroke-width="3" stroke-linecap="round"/>
<line x1="49" y1="356" x2="26" y2="356" stroke="#121317" stroke-width="3" stroke-linecap="round"/>
<line x1="137.5" y1="244.5" x2="137.5" y2="267.5" stroke="#121317" stroke-width="3" stroke-linecap="round"/>
<line x1="137.5" y1="441.5" x2="137.5" y2="464.5" stroke="#121317" stroke-width="3" stroke-linecap="round"/>
<line x1="216.516" y1="279.537" x2="199.898" y2="295.438" stroke="#121317" stroke-width="3" stroke-linecap="round"/>
<line x1="74.1761" y1="415.73" x2="57.5577" y2="431.63" stroke="#121317" stroke-width="3" stroke-linecap="round"/>
<line x1="210.963" y1="435.016" x2="195.062" y2="418.398" stroke="#121317" stroke-width="3" stroke-linecap="round"/>
<line x1="74.7704" y1="292.676" x2="58.8698" y2="276.058" stroke="#121317" stroke-width="3" stroke-linecap="round"/>
<path d="M342.656 298.125C342.656 288.854 344.427 280.156 347.969 272.031C351.51 263.906 356.302 256.823 362.344 250.781C368.49 244.635 375.625 239.792 383.75 236.25C391.875 232.708 400.573 230.938 409.844 230.938H512.656V275.781H409.844C406.719 275.781 403.802 276.354 401.094 277.5C398.385 278.646 395.99 280.26 393.906 282.344C391.927 284.323 390.365 286.667 389.219 289.375C388.073 292.083 387.5 295 387.5 298.125C387.5 301.25 388.073 304.219 389.219 307.031C390.365 309.74 391.927 312.135 393.906 314.219C395.99 316.198 398.385 317.76 401.094 318.906C403.802 320.052 406.719 320.625 409.844 320.625H454.688C463.958 320.625 472.656 322.396 480.781 325.938C489.01 329.375 496.146 334.167 502.188 340.312C508.333 346.354 513.125 353.49 516.562 361.719C520.104 369.844 521.875 378.542 521.875 387.812C521.875 397.083 520.104 405.781 516.562 413.906C513.125 422.031 508.333 429.167 502.188 435.312C496.146 441.354 489.01 446.146 480.781 449.688C472.656 453.229 463.958 455 454.688 455H355.156V410.156H454.688C457.812 410.156 460.729 409.583 463.438 408.438C466.146 407.292 468.49 405.729 470.469 403.75C472.552 401.667 474.167 399.271 475.312 396.562C476.458 393.854 477.031 390.938 477.031 387.812C477.031 384.688 476.458 381.771 475.312 379.062C474.167 376.354 472.552 374.01 470.469 372.031C468.49 369.948 466.146 368.333 463.438 367.188C460.729 366.042 457.812 365.469 454.688 365.469H409.844C400.573 365.469 391.875 363.698 383.75 360.156C375.625 356.615 368.49 351.823 362.344 345.781C356.302 339.635 351.51 332.5 347.969 324.375C344.427 316.146 342.656 307.396 342.656 298.125ZM596.25 455H551.406V230.938H596.25V320.625H685.781V230.938H730.625V455H685.781V365.469H596.25V455ZM817.188 455H772.344V230.938H817.188V455ZM903.75 455H858.906V230.938H1015.78V275.781H903.75V320.625H970.938V365.469H903.75V455ZM1132.97 455H1088.28V275.781H1020.94V230.938H1200.16V275.781H1132.97V455ZM1324.69 455H1280V384.844C1270.1 382.344 1260.99 378.333 1252.66 372.812C1244.43 367.292 1237.34 360.729 1231.41 353.125C1225.47 345.417 1220.83 336.927 1217.5 327.656C1214.27 318.281 1212.66 308.438 1212.66 298.125V230.938H1257.5V298.125C1257.5 304.271 1258.65 310.104 1260.94 315.625C1263.33 321.042 1266.56 325.781 1270.62 329.844C1274.69 333.906 1279.43 337.135 1284.84 339.531C1290.36 341.823 1296.2 342.969 1302.34 342.969C1308.49 342.969 1314.27 341.823 1319.69 339.531C1325.21 337.135 1330 333.906 1334.06 329.844C1338.12 325.781 1341.3 321.042 1343.59 315.625C1345.99 310.104 1347.19 304.271 1347.19 298.125V230.938H1391.88V298.125C1391.88 308.438 1390.21 318.281 1386.88 327.656C1383.65 336.927 1379.06 345.417 1373.12 353.125C1367.19 360.729 1360.1 367.292 1351.88 372.812C1343.65 378.333 1334.58 382.344 1324.69 384.844V455Z" fill="#121317"/>
<defs>
<linearGradient id="paint0_linear_261_109" x1="167" y1="189" x2="359" y2="609.5" gradientUnits="userSpaceOnUse">
<stop stop-color="#23262E"/>
<stop offset="1"/>
</linearGradient>
<linearGradient id="paint1_linear_261_109" x1="159.5" y1="42" x2="159.093" y2="627.09" gradientUnits="userSpaceOnUse">
<stop stop-color="#33CB9A"/>
<stop offset="1" stop-color="#15171C"/>
</linearGradient>
<linearGradient id="paint2_linear_261_109" x1="136" y1="222" x2="253" y2="322" gradientUnits="userSpaceOnUse">
<stop stop-color="white" stop-opacity="0"/>
<stop offset="1" stop-color="#C0C1C3"/>
</linearGradient>
</defs>
</svg>
