<svg width="1205" height="283" viewBox="0 0 1205 283" fill="none" xmlns="http://www.w3.org/2000/svg">
<g clip-path="url(#clip0_2_2)">
<path d="M220.178 101.93C220.178 93.2383 221.838 85.084 225.158 77.4668C228.479 69.8496 232.971 63.209 238.635 57.5449C244.396 51.7832 251.086 47.2422 258.703 43.9219C266.32 40.6016 274.475 38.9414 283.166 38.9414H379.553V80.9824H283.166C280.236 80.9824 277.502 81.5195 274.963 82.5938C272.424 83.668 270.178 85.1816 268.225 87.1348C266.369 88.9902 264.904 91.1875 263.83 93.7266C262.756 96.2656 262.219 99 262.219 101.93C262.219 104.859 262.756 107.643 263.83 110.279C264.904 112.818 266.369 115.064 268.225 117.018C270.178 118.873 272.424 120.338 274.963 121.412C277.502 122.486 280.236 123.023 283.166 123.023H325.207C333.898 123.023 342.053 124.684 349.67 128.004C357.385 131.227 364.074 135.719 369.738 141.48C375.5 147.145 379.992 153.834 383.215 161.549C386.535 169.166 388.195 177.32 388.195 186.012C388.195 194.703 386.535 202.857 383.215 210.475C379.992 218.092 375.5 224.781 369.738 230.543C364.074 236.207 357.385 240.699 349.67 244.02C342.053 247.34 333.898 249 325.207 249H231.896V206.959H325.207C328.137 206.959 330.871 206.422 333.41 205.348C335.949 204.273 338.146 202.809 340.002 200.953C341.955 199 343.469 196.754 344.543 194.215C345.617 191.676 346.154 188.941 346.154 186.012C346.154 183.082 345.617 180.348 344.543 177.809C343.469 175.27 341.955 173.072 340.002 171.217C338.146 169.264 335.949 167.75 333.41 166.676C330.871 165.602 328.137 165.064 325.207 165.064H283.166C274.475 165.064 266.32 163.404 258.703 160.084C251.086 156.764 244.396 152.271 238.635 146.607C232.971 140.846 228.479 134.156 225.158 126.539C221.838 118.824 220.178 110.621 220.178 101.93ZM457.922 249H415.881V38.9414H457.922V123.023H541.857V38.9414H583.898V249H541.857V165.064H457.922V249ZM665.051 249H623.01V38.9414H665.051V249ZM746.203 249H704.162V38.9414H851.232V80.9824H746.203V123.023H809.191V165.064H746.203V249ZM961.096 249H919.201V80.9824H856.066V38.9414H1024.08V80.9824H961.096V249ZM1140.83 249H1098.94V183.229C1089.66 180.885 1081.12 177.125 1073.3 171.949C1065.59 166.773 1058.95 160.621 1053.38 153.492C1047.81 146.266 1043.47 138.307 1040.34 129.615C1037.32 120.826 1035.8 111.598 1035.8 101.93V38.9414H1077.84V101.93C1077.84 107.691 1078.92 113.16 1081.07 118.336C1083.31 123.414 1086.34 127.857 1090.15 131.666C1093.96 135.475 1098.4 138.502 1103.48 140.748C1108.65 142.896 1114.12 143.971 1119.88 143.971C1125.65 143.971 1131.07 142.896 1136.14 140.748C1141.32 138.502 1145.81 135.475 1149.62 131.666C1153.43 127.857 1156.41 123.414 1158.56 118.336C1160.8 113.16 1161.93 107.691 1161.93 101.93V38.9414H1203.82V101.93C1203.82 111.598 1202.26 120.826 1199.13 129.615C1196.11 138.307 1191.81 146.266 1186.24 153.492C1180.68 160.621 1174.04 166.773 1166.32 171.949C1158.61 177.125 1150.11 180.885 1140.83 183.229V249Z" fill="#2A2E37"/>
<circle cx="111.915" cy="184.769" r="84.7" fill="url(#paint0_linear_2_2)"/>
<path d="M161.669 123.762V62.1615C161.669 35.0104 139.659 13 112.508 13H102.438C75.2872 13 53.2769 35.0104 53.2769 62.1615V122.577" stroke="url(#paint1_linear_2_2)" stroke-width="20.7308" stroke-linecap="round"/>
<circle cx="97.7" cy="197.8" r="84.7" fill="#2A2E37"/>
<circle cx="93.8501" cy="198.096" r="65.1539" fill="#33CB9A" stroke="black" stroke-width="1.77692"/>
<path d="M172.331 198.096C172.331 154.752 137.194 119.615 93.8499 119.615" stroke="url(#paint2_linear_2_2)" stroke-width="6.48601" stroke-linecap="round"/>
<path d="M93.2576 161.669L97.1048 173.664H89.4105L93.2576 161.669Z" fill="#303540"/>
<circle cx="93.5538" cy="205.5" r="33.1692" fill="black"/>
<circle cx="83.7807" cy="209.942" r="30.5038" fill="#23262E"/>
<circle cx="83.4847" cy="210.238" r="24.8769" fill="#16181D"/>
<circle cx="81.7078" cy="212.015" r="23.1" fill="#303540"/>
<line x1="164.335" y1="69.5654" x2="164.335" y2="119.319" stroke="white" stroke-opacity="0.5" stroke-width="8.88462" stroke-linecap="round"/>
<line x1="164.335" y1="55.3501" x2="164.335" y2="54.1654" stroke="white" stroke-opacity="0.5" stroke-width="8.88462" stroke-linecap="round"/>
<line x1="158.708" y1="198.985" x2="145.085" y2="198.985" stroke="#121317" stroke-width="1.77692" stroke-linecap="round"/>
<line x1="42.0229" y1="198.985" x2="28.3998" y2="198.985" stroke="#121317" stroke-width="1.77692" stroke-linecap="round"/>
<line x1="94.4423" y1="132.942" x2="94.4423" y2="146.565" stroke="#121317" stroke-width="1.77692" stroke-linecap="round"/>
<line x1="94.4423" y1="249.627" x2="94.4423" y2="263.25" stroke="#121317" stroke-width="1.77692" stroke-linecap="round"/>
<line x1="141.244" y1="153.695" x2="131.401" y2="163.113" stroke="#121317" stroke-width="1.77692" stroke-linecap="round"/>
<line x1="56.935" y1="234.363" x2="47.0918" y2="243.781" stroke="#121317" stroke-width="1.77692" stroke-linecap="round"/>
<line x1="137.955" y1="245.786" x2="128.537" y2="235.943" stroke="#121317" stroke-width="1.77692" stroke-linecap="round"/>
<line x1="57.2873" y1="161.477" x2="47.8692" y2="151.634" stroke="#121317" stroke-width="1.77692" stroke-linecap="round"/>
</g>
<defs>
<linearGradient id="paint0_linear_2_2" x1="111.915" y1="100.069" x2="225.639" y2="349.135" gradientUnits="userSpaceOnUse">
<stop stop-color="#23262E"/>
<stop offset="1"/>
</linearGradient>
<linearGradient id="paint1_linear_2_2" x1="107.473" y1="13" x2="107.232" y2="359.553" gradientUnits="userSpaceOnUse">
<stop stop-color="#33CB9A"/>
<stop offset="1" stop-color="#15171C"/>
</linearGradient>
<linearGradient id="paint2_linear_2_2" x1="93.5537" y1="119.615" x2="162.854" y2="178.846" gradientUnits="userSpaceOnUse">
<stop stop-color="white" stop-opacity="0"/>
<stop offset="1" stop-color="#C0C1C3"/>
</linearGradient>
<clipPath id="clip0_2_2">
<rect width="1205" height="283" fill="white"/>
</clipPath>
</defs>
</svg>
